<?xml version="1.0" encoding="UTF-8" standalone="no"?>
<svg
   xmlns:dc="http://purl.org/dc/elements/1.1/"
   xmlns:cc="http://creativecommons.org/ns#"
   xmlns:rdf="http://www.w3.org/1999/02/22-rdf-syntax-ns#"
   xmlns:svg="http://www.w3.org/2000/svg"
   xmlns="http://www.w3.org/2000/svg"
   xmlns:sodipodi="http://sodipodi.sourceforge.net/DTD/sodipodi-0.dtd"
   xmlns:inkscape="http://www.inkscape.org/namespaces/inkscape"
   version="1.0"
   width="60"
   height="60"
   viewBox="0 0 45 45"
   preserveAspectRatio="xMidYMid meet"
   id="svg8"
   sodipodi:docname="analistacode.svg"
   inkscape:export-filename="C:\Users\Usuário\Downloads\sd.png"
   inkscape:export-xdpi="95"
   inkscape:export-ydpi="95"
   inkscape:version="0.92.4 (5da689c313, 2019-01-14)">
  <metadata
     id="metadata14">
    <rdf:RDF>
      <cc:Work
         rdf:about="">
        <dc:format>image/svg+xml</dc:format>
        <dc:type
           rdf:resource="http://purl.org/dc/dcmitype/StillImage" />
        <dc:title></dc:title>
      </cc:Work>
    </rdf:RDF>
  </metadata>
  <defs
     id="defs12" />
  <sodipodi:namedview
     pagecolor="#ffffff"
     bordercolor="#666666"
     borderopacity="1"
     objecttolerance="10"
     gridtolerance="10"
     guidetolerance="10"
     inkscape:pageopacity="0"
     inkscape:pageshadow="2"
     inkscape:window-width="1280"
     inkscape:window-height="657"
     id="namedview10"
     showgrid="false"
     units="px"
     inkscape:zoom="1.2553191"
     inkscape:cx="-54.974582"
     inkscape:cy="94"
     inkscape:window-x="-8"
     inkscape:window-y="-8"
     inkscape:window-maximized="1"
     inkscape:current-layer="g848" />
  <g
     id="g848"
     transform="translate(1.1949153,13.70339)"
     style="fill:#000000;fill-opacity:0.92181067">
    <g
       style="fill:#000000;fill-opacity:0.92181067;stroke:none"
       id="g6"
       transform="matrix(0.03991905,0,0,-0.03991905,-7.6179583,38.057464)">
      <path
         inkscape:connector-curvature="0"
         id="path2"
         d="M 858,1202 C 843,1192 803,1139 769,1084 668,922 606,830 598,830 c -5,0 -8,-7 -8,-15 0,-10 -11,-15 -35,-15 -34,0 -59,-18 -92,-68 -21,-30 -2,-54 36,-45 l 26,6 -25,-27 c -15,-16 -32,-25 -42,-23 -16,5 -18,-3 -18,-69 0,-41 4,-74 9,-74 14,0 81,98 106,155 13,29 33,55 46,62 69,32 97,46 124,61 17,8 55,21 85,28 30,6 63,15 73,19 15,6 17,-1 17,-71 1,-259 19,-303 95,-231 38,36 45,68 27,132 -6,22 -13,68 -17,102 -7,61 -7,62 24,77 16,9 51,16 76,16 37,0 54,6 86,32 24,19 39,40 39,54 0,27 -24,38 -52,23 -12,-6 -35,-13 -52,-15 -17,-1 -59,-6 -93,-10 l -63,-7 v 29 c 0,16 -11,81 -23,144 -26,127 -35,138 -89,102 z m -23,-185 c 6,-20 17,-45 26,-55 8,-9 15,-34 15,-54 V 872 L 776,847 c -56,-14 -105,-21 -109,-17 -4,4 8,30 28,59 19,29 35,57 35,62 0,6 10,24 22,42 55,79 67,82 83,24 z"
         style="fill:#000000;fill-opacity:0.92181067" />
      <path
         inkscape:connector-curvature="0"
         id="path4"
         d="M 430,1082 C 261,956 194,828 202,646 c 3,-80 8,-101 41,-169 119,-252 421,-343 673,-202 55,31 155,121 177,160 17,31 -5,35 -41,7 C 845,280 560,294 417,473 333,578 306,657 312,779 c 6,118 37,183 135,279 41,39 68,72 61,72 -7,0 -42,-22 -78,-48 z"
         style="fill:#000000;fill-opacity:0.92181067" />
    </g>
  </g>
</svg>
