<?xml version="1.0" encoding="UTF-8" standalone="no"?>
<svg
   xmlns:dc="http://purl.org/dc/elements/1.1/"
   xmlns:cc="http://creativecommons.org/ns#"
   xmlns:rdf="http://www.w3.org/1999/02/22-rdf-syntax-ns#"
   xmlns:svg="http://www.w3.org/2000/svg"
   xmlns="http://www.w3.org/2000/svg"
   xmlns:sodipodi="http://sodipodi.sourceforge.net/DTD/sodipodi-0.dtd"
   xmlns:inkscape="http://www.inkscape.org/namespaces/inkscape"
   viewBox="0 0 640 400"
   version="1.1"
   id="svg4"
   sodipodi:docname="info.svg"
   width="640"
   height="400"
   inkscape:version="0.92.4 (5da689c313, 2019-01-14)">
  <metadata
     id="metadata10">
    <rdf:RDF>
      <cc:Work
         rdf:about="">
        <dc:format>image/svg+xml</dc:format>
        <dc:type
           rdf:resource="http://purl.org/dc/dcmitype/StillImage" />
        <dc:title />
      </cc:Work>
    </rdf:RDF>
  </metadata>
  <defs
     id="defs8" />
  <sodipodi:namedview
     pagecolor="#ffffff"
     bordercolor="#666666"
     borderopacity="1"
     objecttolerance="10"
     gridtolerance="10"
     guidetolerance="10"
     inkscape:pageopacity="0"
     inkscape:pageshadow="2"
     inkscape:window-width="1280"
     inkscape:window-height="657"
     id="namedview6"
     showgrid="false"
     inkscape:zoom="0.4609375"
     inkscape:cx="-283.66102"
     inkscape:cy="256"
     inkscape:window-x="-8"
     inkscape:window-y="-8"
     inkscape:window-maximized="1"
     inkscape:current-layer="svg4" />
  <path
     d="m 271.78531,332.06425 h 15.48023 V 220.25213 h -15.48023 c -8.54973,0 -15.48023,-6.9305 -15.48023,-15.48023 v -36.97529 c 0,-8.54973 6.9305,-15.48023 15.48023,-15.48023 h 86.68926 c 8.54973,0 15.48023,6.9305 15.48023,15.48023 v 164.26764 h 15.48022 c 8.54973,0 15.48023,6.9305 15.48023,15.48023 v 36.97529 c 0,8.54973 -6.9305,15.48023 -15.48023,15.48023 H 271.78531 c -8.54973,0 -15.48023,-6.9305 -15.48023,-15.48023 v -36.97529 c 0,-8.54973 6.9305,-15.48023 15.48023,-15.48023 z M 330.61017,3.7062147 c -30.77856,0 -55.72881,24.9502543 -55.72881,55.7288133 0,30.77856 24.95025,55.728812 55.72881,55.728812 30.77855,0 55.72881,-24.950252 55.72881,-55.728812 0,-30.778559 -24.95103,-55.7288133 -55.72881,-55.7288133 z"
     id="path2"
     inkscape:connector-curvature="0"
     style="stroke-width:0.77401131;fill:#000000;fill-opacity:1" />
</svg>
