<?xml version="1.0" encoding="UTF-8" standalone="no"?>
<svg
   xmlns:dc="http://purl.org/dc/elements/1.1/"
   xmlns:cc="http://creativecommons.org/ns#"
   xmlns:rdf="http://www.w3.org/1999/02/22-rdf-syntax-ns#"
   xmlns:svg="http://www.w3.org/2000/svg"
   xmlns="http://www.w3.org/2000/svg"
   xmlns:sodipodi="http://sodipodi.sourceforge.net/DTD/sodipodi-0.dtd"
   xmlns:inkscape="http://www.inkscape.org/namespaces/inkscape"
   viewBox="0 0 640 450"
   version="1.1"
   id="svg4"
   sodipodi:docname="power-off.svg"
   width="640"
   height="450"
   inkscape:version="0.92.4 (5da689c313, 2019-01-14)">
  <metadata
     id="metadata10">
    <rdf:RDF>
      <cc:Work
         rdf:about="">
        <dc:format>image/svg+xml</dc:format>
        <dc:type
           rdf:resource="http://purl.org/dc/dcmitype/StillImage" />
        <dc:title />
      </cc:Work>
    </rdf:RDF>
  </metadata>
  <defs
     id="defs8" />
  <sodipodi:namedview
     pagecolor="#ffffff"
     bordercolor="#666666"
     borderopacity="1"
     objecttolerance="10"
     gridtolerance="10"
     guidetolerance="10"
     inkscape:pageopacity="0"
     inkscape:pageshadow="2"
     inkscape:window-width="1280"
     inkscape:window-height="657"
     id="namedview6"
     showgrid="false"
     inkscape:zoom="0.4609375"
     inkscape:cx="-523.93221"
     inkscape:cy="256"
     inkscape:window-x="-8"
     inkscape:window-y="-8"
     inkscape:window-maximized="1"
     inkscape:current-layer="svg4" />
  <path
     d="m 452.45202,56.00832 c 54.05087,38.607756 89.22682,101.75289 89.22682,173.22013 0,117.36758 -95.06087,212.51425 -212.34265,212.77163 -117.1102,0.25739 -213.02903,-95.23246 -213.20062,-212.42845 -0.0858,-71.46724 35.09016,-134.783964 89.05522,-173.47751 10.03802,-7.120988 24.02262,-4.118163 30.02827,6.606209 l 13.5556,24.108397 c 5.06191,9.00848 2.65966,20.419224 -5.66246,26.596464 -35.60494,26.42486 -58.34062,68.29283 -58.34062,115.73746 -0.0858,79.18881 63.9173,144.22143 144.13563,144.22143 78.58823,0 144.65039,-63.6599 144.13562,-145.07938 -0.25739,-44.44181 -21.19137,-87.33932 -58.4264,-114.9653 -8.32212,-6.17724 -10.63859,-17.587984 -5.57668,-26.510674 l 13.55561,-24.108397 c 6.00566,-10.638577 19.90445,-13.812992 29.85666,-6.692009 z M 363.22521,236.09205 V 30.184023 c 0,-11.410736 -9.18007,-20.5908035 -20.59081,-20.5908035 h -27.45439 c -11.41074,0 -20.59081,9.1800675 -20.59081,20.5908035 V 236.09205 c 0,11.41074 9.18007,20.59081 20.59081,20.59081 h 27.45439 c 11.41074,0 20.59081,-9.18007 20.59081,-20.59081 z"
     id="path2"
     style="fill:#000000;fill-opacity:1;stroke-width:0.85795015"
     inkscape:connector-curvature="0" />
</svg>
