<?xml version="1.0" encoding="UTF-8" standalone="no"?>
<svg
   xmlns:dc="http://purl.org/dc/elements/1.1/"
   xmlns:cc="http://creativecommons.org/ns#"
   xmlns:rdf="http://www.w3.org/1999/02/22-rdf-syntax-ns#"
   xmlns:svg="http://www.w3.org/2000/svg"
   xmlns="http://www.w3.org/2000/svg"
   xmlns:sodipodi="http://sodipodi.sourceforge.net/DTD/sodipodi-0.dtd"
   xmlns:inkscape="http://www.inkscape.org/namespaces/inkscape"
   viewBox="0 0 640 400"
   version="1.1"
   id="svg4"
   sodipodi:docname="question.svg"
   width="640"
   height="400"
   inkscape:version="0.92.4 (5da689c313, 2019-01-14)">
  <metadata
     id="metadata10">
    <rdf:RDF>
      <cc:Work
         rdf:about="">
        <dc:format>image/svg+xml</dc:format>
        <dc:type
           rdf:resource="http://purl.org/dc/dcmitype/StillImage" />
        <dc:title />
      </cc:Work>
    </rdf:RDF>
  </metadata>
  <defs
     id="defs8" />
  <sodipodi:namedview
     pagecolor="#ffffff"
     bordercolor="#666666"
     borderopacity="1"
     objecttolerance="10"
     gridtolerance="10"
     guidetolerance="10"
     inkscape:pageopacity="0"
     inkscape:pageshadow="2"
     inkscape:window-width="1280"
     inkscape:window-height="657"
     id="namedview6"
     showgrid="false"
     inkscape:zoom="0.4609375"
     inkscape:cx="-576"
     inkscape:cy="256"
     inkscape:window-x="-8"
     inkscape:window-y="-8"
     inkscape:window-maximized="1"
     inkscape:current-layer="svg4" />
  <path
     d="m 334.33303,3.1785875 c -61.86306,0 -101.93195,25.3461935 -133.39012,70.5489575 -5.70664,8.199942 -3.94729,19.442698 4.01316,25.478729 l 33.43376,25.350836 c 8.03951,6.09571 19.47835,4.6704 25.77246,-3.21487 19.41402,-24.321587 33.81507,-38.325044 64.14014,-38.325044 23.84339,0 53.33528,15.34505 53.33528,38.466094 0,17.47875 -14.42896,26.45528 -37.97163,39.65424 -27.4543,15.39234 -63.78517,34.54827 -63.78517,82.46833 v 7.58611 c 0,10.27318 8.32783,18.60101 18.60101,18.60101 h 56.16805 c 10.27319,0 18.60101,-8.32783 18.60101,-18.60101 v -4.47431 c 0,-33.21829 97.08794,-34.60174 97.08794,-124.49265 C 470.3397,54.529759 400.11936,3.1785875 334.33303,3.1785875 Z M 326.56634,292.62494 c -29.60351,0 -53.68793,24.08442 -53.68793,53.68791 0,29.60273 24.08442,53.68715 53.68793,53.68715 29.60349,0 53.68792,-24.08442 53.68792,-53.68792 0,-29.6035 -24.08443,-53.68714 -53.68792,-53.68714 z"
     id="path2"
     inkscape:connector-curvature="0"
     style="stroke-width:0.77504182;fill:#1e82c6;fill-opacity:1" />
</svg>
